<svg width="20" height="20" viewBox="0 0 20 20" fill="none" xmlns="http://www.w3.org/2000/svg">
<circle cx="10" cy="10" r="10" fill="#63FF04"/>
<path d="M8.575 12.175L14.475 6.275C14.6583 6.09167 14.8917 6 15.175 6C15.4583 6 15.6917 6.09167 15.875 6.275C16.0583 6.45833 16.15 6.69167 16.15 6.975C16.15 7.25833 16.0583 7.49167 15.875 7.675L9.275 14.275C9.075 14.475 8.84167 14.575 8.575 14.575C8.30833 14.575 8.075 14.475 7.875 14.275L5.275 11.675C5.09167 11.4917 5 11.2583 5 10.975C5 10.6917 5.09167 10.4583 5.275 10.275C5.45833 10.0917 5.69167 10 5.975 10C6.25833 10 6.49167 10.0917 6.675 10.275L8.575 12.175Z" fill="#F8F8F8"/>
</svg>
