<svg width="18" height="18" viewBox="0 0 18 18" fill="none" xmlns="http://www.w3.org/2000/svg">
<path d="M10 5V1C10 0.716667 10.096 0.479 10.288 0.287C10.4793 0.0956666 10.7167 0 11 0H17C17.2833 0 17.5207 0.0956666 17.712 0.287C17.904 0.479 18 0.716667 18 1V5C18 5.28333 17.904 5.52067 17.712 5.712C17.5207 5.904 17.2833 6 17 6H11C10.7167 6 10.4793 5.904 10.288 5.712C10.096 5.52067 10 5.28333 10 5ZM0 9V1C0 0.716667 0.0960001 0.479 0.288 0.287C0.479333 0.0956666 0.716667 0 1 0H7C7.28333 0 7.521 0.0956666 7.713 0.287C7.90433 0.479 8 0.716667 8 1V9C8 9.28333 7.90433 9.52067 7.713 9.712C7.521 9.904 7.28333 10 7 10H1C0.716667 10 0.479333 9.904 0.288 9.712C0.0960001 9.52067 0 9.28333 0 9ZM10 17V9C10 8.71667 10.096 8.479 10.288 8.287C10.4793 8.09567 10.7167 8 11 8H17C17.2833 8 17.5207 8.09567 17.712 8.287C17.904 8.479 18 8.71667 18 9V17C18 17.2833 17.904 17.5207 17.712 17.712C17.5207 17.904 17.2833 18 17 18H11C10.7167 18 10.4793 17.904 10.288 17.712C10.096 17.5207 10 17.2833 10 17ZM0 17V13C0 12.7167 0.0960001 12.479 0.288 12.287C0.479333 12.0957 0.716667 12 1 12H7C7.28333 12 7.521 12.0957 7.713 12.287C7.90433 12.479 8 12.7167 8 13V17C8 17.2833 7.90433 17.5207 7.713 17.712C7.521 17.904 7.28333 18 7 18H1C0.716667 18 0.479333 17.904 0.288 17.712C0.0960001 17.5207 0 17.2833 0 17ZM2 8H6V2H2V8ZM12 16H16V10H12V16ZM12 4H16V2H12V4ZM2 16H6V14H2V16Z" fill="#66788A"/>
</svg>
