<svg width="18" height="20" viewBox="0 0 18 20" fill="none" xmlns="http://www.w3.org/2000/svg">
<path d="M12.1 10.05L9.95 7.9L4.225 13.625C4.14167 13.7083 4.08333 13.7917 4.05 13.875C4.01667 13.9583 4 14.05 4 14.15V15.5C4 15.6333 4.05 15.75 4.15 15.85C4.25 15.95 4.36667 16 4.5 16H5.8C5.9 16 5.996 15.9833 6.088 15.95C6.17933 15.9167 6.25833 15.8583 6.325 15.775L12.1 10.05ZM12.8 9.35L13.85 8.25C13.95 8.15 14 8.03333 14 7.9C14 7.76667 13.95 7.65 13.85 7.55L12.45 6.15C12.35 6.05 12.2333 6 12.1 6C11.9667 6 11.85 6.05 11.75 6.15L10.65 7.2L12.8 9.35ZM2 20C1.45 20 0.979 19.8043 0.587 19.413C0.195667 19.021 0 18.55 0 18V4C0 3.45 0.195667 2.979 0.587 2.587C0.979 2.19567 1.45 2 2 2H6.2C6.41667 1.4 6.77933 0.916667 7.288 0.55C7.796 0.183333 8.36667 0 9 0C9.63333 0 10.2043 0.183333 10.713 0.55C11.221 0.916667 11.5833 1.4 11.8 2H16C16.55 2 17.021 2.19567 17.413 2.587C17.8043 2.979 18 3.45 18 4V18C18 18.55 17.8043 19.021 17.413 19.413C17.021 19.8043 16.55 20 16 20H2ZM9 3.25C9.21667 3.25 9.396 3.179 9.538 3.037C9.67933 2.89567 9.75 2.71667 9.75 2.5C9.75 2.28333 9.67933 2.104 9.538 1.962C9.396 1.82067 9.21667 1.75 9 1.75C8.78333 1.75 8.60433 1.82067 8.463 1.962C8.321 2.104 8.25 2.28333 8.25 2.5C8.25 2.71667 8.321 2.89567 8.463 3.037C8.60433 3.179 8.78333 3.25 9 3.25Z" fill="#66788A"/>
</svg>
