<svg width="21" height="20" viewBox="0 0 21 20" fill="none" xmlns="http://www.w3.org/2000/svg">
<path d="M8 8C6.9 8 5.95833 7.60833 5.175 6.825C4.39167 6.04167 4 5.1 4 4C4 2.9 4.39167 1.95833 5.175 1.175C5.95833 0.391667 6.9 0 8 0C9.1 0 10.0417 0.391667 10.825 1.175C11.6083 1.95833 12 2.9 12 4C12 5.1 11.6083 6.04167 10.825 6.825C10.0417 7.60833 9.1 8 8 8ZM18.4 18.8L15.9 16.3C15.55 16.5 15.175 16.6667 14.775 16.8C14.375 16.9333 13.95 17 13.5 17C12.25 17 11.1873 16.5627 10.312 15.688C9.43733 14.8127 9 13.75 9 12.5C9 11.25 9.43733 10.1873 10.312 9.312C11.1873 8.43733 12.25 8 13.5 8C14.75 8 15.8127 8.43733 16.688 9.312C17.5627 10.1873 18 11.25 18 12.5C18 12.95 17.9333 13.375 17.8 13.775C17.6667 14.175 17.5 14.55 17.3 14.9L19.8 17.4C19.9833 17.5833 20.075 17.8167 20.075 18.1C20.075 18.3833 19.9833 18.6167 19.8 18.8C19.6167 18.9833 19.3833 19.075 19.1 19.075C18.8167 19.075 18.5833 18.9833 18.4 18.8ZM13.5 15C14.2 15 14.7917 14.7583 15.275 14.275C15.7583 13.7917 16 13.2 16 12.5C16 11.8 15.7583 11.2083 15.275 10.725C14.7917 10.2417 14.2 10 13.5 10C12.8 10 12.2083 10.2417 11.725 10.725C11.2417 11.2083 11 11.8 11 12.5C11 13.2 11.2417 13.7917 11.725 14.275C12.2083 14.7583 12.8 15 13.5 15ZM2 16C1.45 16 0.979 15.8043 0.587 15.413C0.195667 15.021 0 14.55 0 14V13.225C0 12.6583 0.141667 12.1333 0.425 11.65C0.708333 11.1667 1.1 10.8 1.6 10.55C2.45 10.1167 3.40833 9.75 4.475 9.45C5.54167 9.15 6.725 9 8.025 9C7.69167 9.51667 7.43733 10.0707 7.262 10.662C7.08733 11.254 7 11.8667 7 12.5C7 13.1167 7.08733 13.7207 7.262 14.312C7.43733 14.904 7.69167 15.4667 8.025 16H2Z" fill="#66788A"/>
</svg>
