<svg width="18" height="18" viewBox="0 0 18 18" fill="none" xmlns="http://www.w3.org/2000/svg">
<path d="M16.3333 9C16.0889 9 15.8713 8.912 15.6807 8.736C15.4894 8.56061 15.3785 8.34306 15.3479 8.08333C15.1493 6.6625 14.5498 5.45158 13.5494 4.45058C12.5484 3.45019 11.3375 2.85069 9.91667 2.65208C9.65694 2.62153 9.43939 2.51458 9.264 2.33125C9.088 2.14792 9 1.92639 9 1.66667C9 1.40694 9.09167 1.18908 9.275 1.01308C9.45833 0.837694 9.67222 0.765278 9.91667 0.795833C11.8417 1.00972 13.484 1.79653 14.8438 3.15625C16.2035 4.51597 16.9903 6.15833 17.2042 8.08333C17.2347 8.32778 17.162 8.54167 16.986 8.725C16.8106 8.90833 16.5931 9 16.3333 9ZM12.5063 9C12.3076 9 12.1319 8.93125 11.9792 8.79375C11.8264 8.65625 11.7118 8.47292 11.6354 8.24375C11.5132 7.80069 11.2804 7.40714 10.9369 7.06308C10.5929 6.71964 10.1993 6.48681 9.75625 6.36458C9.52708 6.28819 9.34375 6.17361 9.20625 6.02083C9.06875 5.86806 9 5.68472 9 5.47083C9 5.16528 9.10695 4.91686 9.32083 4.72558C9.53472 4.53492 9.77153 4.47014 10.0312 4.53125C10.8868 4.72986 11.6241 5.13839 12.2432 5.75683C12.8616 6.37589 13.2701 7.11319 13.4688 7.96875C13.5299 8.22847 13.4611 8.46528 13.2625 8.67917C13.0639 8.89305 12.8118 9 12.5063 9ZM16.2875 17.25C14.3167 17.25 12.3956 16.8106 10.5244 15.9318C8.65258 15.0537 6.99494 13.8926 5.5515 12.4485C4.10744 11.0051 2.94633 9.34742 2.06817 7.47558C1.18939 5.60436 0.75 3.68333 0.75 1.7125C0.75 1.4375 0.841667 1.20833 1.025 1.025C1.20833 0.841667 1.4375 0.75 1.7125 0.75H5.425C5.63889 0.75 5.82986 0.81875 5.99792 0.95625C6.16597 1.09375 6.26528 1.26944 6.29583 1.48333L6.89167 4.69167C6.92222 4.90556 6.91856 5.10019 6.88067 5.27558C6.84217 5.45158 6.75417 5.60833 6.61667 5.74583L4.41667 7.99167C5.05833 9.09167 5.86042 10.1229 6.82292 11.0854C7.78542 12.0479 8.84722 12.8806 10.0083 13.5833L12.1625 11.4292C12.3 11.2917 12.4797 11.1884 12.7015 11.1193C12.9227 11.0509 13.1403 11.0319 13.3542 11.0625L16.5167 11.7042C16.7306 11.75 16.9062 11.853 17.0438 12.0131C17.1812 12.1738 17.25 12.3611 17.25 12.575V16.2875C17.25 16.5625 17.1583 16.7917 16.975 16.975C16.7917 17.1583 16.5625 17.25 16.2875 17.25Z" fill="#66788A"/>
</svg>
