<svg width="162" height="32" viewBox="0 0 162 32" fill="none" xmlns="http://www.w3.org/2000/svg">
<path d="M9.82505 30.6923C8.35516 30.6923 7.07868 30.3829 5.9956 29.764C4.93831 29.1193 4.11311 28.2554 3.52 27.1723C2.95267 26.0635 2.66901 24.8257 2.66901 23.4589V3.6154H6.38242V23.9231C6.38242 24.9288 6.69187 25.7669 7.31077 26.4374C7.95546 27.0821 8.79355 27.4044 9.82505 27.4044H17.0971V30.6923H9.82505ZM21.0206 30.6923V10.9648H24.6179V30.6923H21.0206ZM22.8386 7.83166C22.1939 7.83166 21.6266 7.59958 21.1366 7.1354C20.6724 6.64544 20.4404 6.07811 20.4404 5.43342C20.4404 4.78873 20.6724 4.2343 21.1366 3.77012C21.6266 3.28016 22.1939 3.03518 22.8386 3.03518C23.4833 3.03518 24.0377 3.28016 24.5019 3.77012C24.9919 4.2343 25.2368 4.78873 25.2368 5.43342C25.2368 6.07811 24.9919 6.64544 24.5019 7.1354C24.0377 7.59958 23.4833 7.83166 22.8386 7.83166ZM29.9185 30.6923V27.6365H39.3567C39.9756 27.6365 40.5043 27.5076 40.9427 27.2497C41.4068 26.966 41.755 26.605 41.9871 26.1666C42.2191 25.7282 42.3352 25.264 42.3352 24.7741C42.3352 24.3099 42.232 23.8844 42.0257 23.4976C41.8194 23.085 41.4971 22.7627 41.0587 22.5306C40.6461 22.2727 40.1432 22.1438 39.5501 22.1438H35.566C34.3024 22.1438 33.1935 21.9374 32.2394 21.5248C31.311 21.0865 30.5761 20.4547 30.0345 19.6295C29.5188 18.8043 29.2609 17.7985 29.2609 16.6123C29.2609 15.6066 29.5059 14.6783 29.9959 13.8273C30.4858 12.9763 31.1692 12.2929 32.046 11.7772C32.9227 11.2356 33.9285 10.9648 35.0631 10.9648H44.1532V14.0207H35.4112C34.6118 14.0207 33.98 14.2657 33.5159 14.7556C33.0517 15.2456 32.8196 15.8258 32.8196 16.4963C32.8196 17.141 33.0517 17.7083 33.5159 18.1983C34.0058 18.6624 34.6892 18.8945 35.566 18.8945H39.3567C40.775 18.8945 41.9613 19.1266 42.9154 19.5908C43.8953 20.0292 44.6303 20.6739 45.1202 21.5248C45.636 22.3758 45.8939 23.4202 45.8939 24.658C45.8939 25.7153 45.636 26.7081 45.1202 27.6365C44.6045 28.5391 43.8824 29.274 42.9541 29.8413C42.0515 30.4087 40.9942 30.6923 39.7822 30.6923H29.9185ZM62.7239 30.6923C60.6609 30.6665 58.7784 30.3055 57.0764 29.6092C55.3744 28.8872 53.9045 27.9073 52.6667 26.6695C51.4547 25.4317 50.5135 24.0005 49.843 22.3758C49.1983 20.7512 48.876 19.0106 48.876 17.1539C48.876 15.2972 49.1983 13.5565 49.843 11.9319C50.5135 10.3073 51.4547 8.87606 52.6667 7.63826C53.9045 6.40045 55.3744 5.43342 57.0764 4.73716C58.7784 4.01511 60.6609 3.64119 62.7239 3.6154H66.2052V6.90331H62.8399C61.37 6.90331 60.0162 7.17408 58.7784 7.71562C57.5406 8.23137 56.4575 8.95342 55.5291 9.88177C54.6266 10.7843 53.9174 11.8545 53.4017 13.0923C52.8859 14.3301 52.628 15.684 52.628 17.1539C52.628 18.598 52.8859 19.9518 53.4017 21.2154C53.9174 22.4532 54.6266 23.5363 55.5291 24.4646C56.4575 25.3672 57.5406 26.0764 58.7784 26.5921C60.0162 27.1079 61.37 27.3786 62.8399 27.4044H66.2052V30.6923H62.7239ZM79.6439 31.1565C77.6325 31.1565 75.8532 30.7052 74.3059 29.8027C72.7587 28.8743 71.5337 27.6365 70.6312 26.0892C69.7286 24.5162 69.2773 22.7627 69.2773 20.8286C69.2773 18.8945 69.7286 17.1539 70.6312 15.6066C71.5337 14.0336 72.7587 12.7958 74.3059 11.8932C75.8532 10.9648 77.6325 10.5007 79.6439 10.5007C81.6554 10.5007 83.4347 10.9648 84.9819 11.8932C86.555 12.7958 87.7799 14.0207 88.6567 15.5679C89.5592 17.1152 90.0105 18.8687 90.0105 20.8286C90.0105 22.7627 89.5592 24.5162 88.6567 26.0892C87.7799 27.6365 86.555 28.8743 84.9819 29.8027C83.4347 30.7052 81.6554 31.1565 79.6439 31.1565ZM79.6439 28.1007C81.0107 28.1007 82.1969 27.7783 83.2026 27.1336C84.2083 26.489 84.9948 25.6251 85.5622 24.542C86.1295 23.4331 86.4132 22.1953 86.4132 20.8286C86.4132 19.4618 86.1295 18.2369 85.5622 17.1539C84.9948 16.045 84.2083 15.1682 83.2026 14.5235C82.1969 13.8788 81.0107 13.5565 79.6439 13.5565C78.303 13.5565 77.1167 13.8788 76.0852 14.5235C75.0795 15.1682 74.293 16.045 73.7257 17.1539C73.1584 18.2369 72.8747 19.4618 72.8747 20.8286C72.8747 22.1953 73.1584 23.4331 73.7257 24.542C74.293 25.6251 75.0795 26.489 76.0852 27.1336C77.1167 27.7783 78.303 28.1007 79.6439 28.1007ZM94.5257 30.6923V19.2813C94.5257 17.5278 94.9125 15.9934 95.6861 14.6783C96.4855 13.3631 97.5815 12.3445 98.974 11.6224C100.367 10.8746 101.952 10.5007 103.732 10.5007C105.537 10.5007 107.123 10.8746 108.49 11.6224C109.882 12.3445 110.965 13.3631 111.739 14.6783C112.538 15.9934 112.938 17.5278 112.938 19.2813V30.6923H109.379V19.32C109.379 18.1338 109.109 17.1152 108.567 16.2642C108.051 15.3874 107.355 14.7169 106.478 14.2528C105.627 13.7886 104.712 13.5565 103.732 13.5565C102.752 13.5565 101.824 13.7886 100.947 14.2528C100.096 14.7169 99.3995 15.3874 98.858 16.2642C98.3422 17.1152 98.0843 18.1338 98.0843 19.32V30.6923H94.5257ZM118.54 30.6923V19.2813C118.54 17.5278 118.927 15.9934 119.7 14.6783C120.5 13.3631 121.596 12.3445 122.988 11.6224C124.381 10.8746 125.967 10.5007 127.746 10.5007C129.551 10.5007 131.137 10.8746 132.504 11.6224C133.896 12.3445 134.979 13.3631 135.753 14.6783C136.552 15.9934 136.952 17.5278 136.952 19.2813V30.6923H133.393V19.32C133.393 18.1338 133.123 17.1152 132.581 16.2642C132.065 15.3874 131.369 14.7169 130.492 14.2528C129.641 13.7886 128.726 13.5565 127.746 13.5565C126.766 13.5565 125.838 13.7886 124.961 14.2528C124.11 14.7169 123.414 15.3874 122.872 16.2642C122.356 17.1152 122.098 18.1338 122.098 19.32V30.6923H118.54ZM152.572 30.6923C150.406 30.6923 148.485 30.2926 146.809 29.4932C145.133 28.668 143.818 27.5205 142.863 26.0506C141.935 24.5549 141.471 22.8142 141.471 20.8286C141.471 18.8687 141.871 17.1152 142.67 15.5679C143.469 13.9949 144.578 12.7571 145.997 11.8545C147.415 10.952 149.065 10.5007 150.948 10.5007C152.985 10.5007 154.674 10.9391 156.015 11.8158C157.382 12.6926 158.4 13.8788 159.071 15.3745C159.741 16.8444 160.077 18.4948 160.077 20.3257C160.077 20.6094 160.064 20.9059 160.038 21.2154C160.038 21.5248 160.012 21.7956 159.961 22.0277H145.262C145.391 23.2397 145.79 24.2712 146.461 25.1222C147.131 25.9474 147.982 26.5792 149.014 27.0176C150.071 27.4302 151.231 27.6365 152.495 27.6365H157.64V30.6923H152.572ZM145.223 19.5134H156.479C156.479 19.0235 156.428 18.5077 156.324 17.9662C156.221 17.3988 156.041 16.8573 155.783 16.3416C155.525 15.8 155.177 15.3229 154.739 14.9103C154.326 14.472 153.797 14.1238 153.153 13.8659C152.534 13.6081 151.799 13.4791 150.948 13.4791C150.045 13.4791 149.246 13.6596 148.55 14.0207C147.879 14.3559 147.299 14.8201 146.809 15.4132C146.319 15.9805 145.945 16.6252 145.687 17.3473C145.429 18.0693 145.275 18.7914 145.223 19.5134Z" fill="white"/>
<mask id="mask0_201_2001" style="mask-type:alpha" maskUnits="userSpaceOnUse" x="2" y="3" width="159" height="29">
<path d="M9.82505 30.6923C8.35516 30.6923 7.07868 30.3829 5.9956 29.764C4.93831 29.1193 4.11311 28.2554 3.52 27.1723C2.95267 26.0635 2.66901 24.8257 2.66901 23.4589V3.6154H6.38242V23.9231C6.38242 24.9288 6.69187 25.7669 7.31077 26.4374C7.95546 27.0821 8.79355 27.4044 9.82505 27.4044H17.0971V30.6923H9.82505ZM21.0206 30.6923V10.9648H24.6179V30.6923H21.0206ZM22.8386 7.83166C22.1939 7.83166 21.6266 7.59958 21.1366 7.1354C20.6724 6.64544 20.4404 6.07811 20.4404 5.43342C20.4404 4.78873 20.6724 4.2343 21.1366 3.77012C21.6266 3.28016 22.1939 3.03518 22.8386 3.03518C23.4833 3.03518 24.0377 3.28016 24.5019 3.77012C24.9919 4.2343 25.2368 4.78873 25.2368 5.43342C25.2368 6.07811 24.9919 6.64544 24.5019 7.1354C24.0377 7.59958 23.4833 7.83166 22.8386 7.83166ZM29.9185 30.6923V27.6365H39.3567C39.9756 27.6365 40.5043 27.5076 40.9427 27.2497C41.4068 26.966 41.755 26.605 41.9871 26.1666C42.2191 25.7282 42.3352 25.264 42.3352 24.7741C42.3352 24.3099 42.232 23.8844 42.0257 23.4976C41.8194 23.085 41.4971 22.7627 41.0587 22.5306C40.6461 22.2727 40.1432 22.1438 39.5501 22.1438H35.566C34.3024 22.1438 33.1935 21.9374 32.2394 21.5248C31.311 21.0865 30.5761 20.4547 30.0345 19.6295C29.5188 18.8043 29.2609 17.7985 29.2609 16.6123C29.2609 15.6066 29.5059 14.6783 29.9959 13.8273C30.4858 12.9763 31.1692 12.2929 32.046 11.7772C32.9227 11.2356 33.9285 10.9648 35.0631 10.9648H44.1532V14.0207H35.4112C34.6118 14.0207 33.98 14.2657 33.5159 14.7556C33.0517 15.2456 32.8196 15.8258 32.8196 16.4963C32.8196 17.141 33.0517 17.7083 33.5159 18.1983C34.0058 18.6624 34.6892 18.8945 35.566 18.8945H39.3567C40.775 18.8945 41.9613 19.1266 42.9154 19.5908C43.8953 20.0292 44.6303 20.6739 45.1202 21.5248C45.636 22.3758 45.8939 23.4202 45.8939 24.658C45.8939 25.7153 45.636 26.7081 45.1202 27.6365C44.6045 28.5391 43.8824 29.274 42.9541 29.8413C42.0515 30.4087 40.9942 30.6923 39.7822 30.6923H29.9185ZM62.7239 30.6923C60.6609 30.6665 58.7784 30.3055 57.0764 29.6092C55.3744 28.8872 53.9045 27.9073 52.6667 26.6695C51.4547 25.4317 50.5135 24.0005 49.843 22.3758C49.1983 20.7512 48.876 19.0106 48.876 17.1539C48.876 15.2972 49.1983 13.5565 49.843 11.9319C50.5135 10.3073 51.4547 8.87606 52.6667 7.63826C53.9045 6.40045 55.3744 5.43342 57.0764 4.73716C58.7784 4.01511 60.6609 3.64119 62.7239 3.6154H66.2052V6.90331H62.8399C61.37 6.90331 60.0162 7.17408 58.7784 7.71562C57.5406 8.23137 56.4575 8.95342 55.5291 9.88177C54.6266 10.7843 53.9174 11.8545 53.4017 13.0923C52.8859 14.3301 52.628 15.684 52.628 17.1539C52.628 18.598 52.8859 19.9518 53.4017 21.2154C53.9174 22.4532 54.6266 23.5363 55.5291 24.4646C56.4575 25.3672 57.5406 26.0764 58.7784 26.5921C60.0162 27.1079 61.37 27.3786 62.8399 27.4044H66.2052V30.6923H62.7239ZM79.6439 31.1565C77.6325 31.1565 75.8532 30.7052 74.3059 29.8027C72.7587 28.8743 71.5337 27.6365 70.6312 26.0892C69.7286 24.5162 69.2773 22.7627 69.2773 20.8286C69.2773 18.8945 69.7286 17.1539 70.6312 15.6066C71.5337 14.0336 72.7587 12.7958 74.3059 11.8932C75.8532 10.9648 77.6325 10.5007 79.6439 10.5007C81.6554 10.5007 83.4347 10.9648 84.9819 11.8932C86.555 12.7958 87.7799 14.0207 88.6567 15.5679C89.5592 17.1152 90.0105 18.8687 90.0105 20.8286C90.0105 22.7627 89.5592 24.5162 88.6567 26.0892C87.7799 27.6365 86.555 28.8743 84.9819 29.8027C83.4347 30.7052 81.6554 31.1565 79.6439 31.1565ZM79.6439 28.1007C81.0107 28.1007 82.1969 27.7783 83.2026 27.1336C84.2083 26.489 84.9948 25.6251 85.5622 24.542C86.1295 23.4331 86.4132 22.1953 86.4132 20.8286C86.4132 19.4618 86.1295 18.2369 85.5622 17.1539C84.9948 16.045 84.2083 15.1682 83.2026 14.5235C82.1969 13.8788 81.0107 13.5565 79.6439 13.5565C78.303 13.5565 77.1167 13.8788 76.0852 14.5235C75.0795 15.1682 74.293 16.045 73.7257 17.1539C73.1584 18.2369 72.8747 19.4618 72.8747 20.8286C72.8747 22.1953 73.1584 23.4331 73.7257 24.542C74.293 25.6251 75.0795 26.489 76.0852 27.1336C77.1167 27.7783 78.303 28.1007 79.6439 28.1007ZM94.5257 30.6923V19.2813C94.5257 17.5278 94.9125 15.9934 95.6861 14.6783C96.4855 13.3631 97.5815 12.3445 98.974 11.6224C100.367 10.8746 101.952 10.5007 103.732 10.5007C105.537 10.5007 107.123 10.8746 108.49 11.6224C109.882 12.3445 110.965 13.3631 111.739 14.6783C112.538 15.9934 112.938 17.5278 112.938 19.2813V30.6923H109.379V19.32C109.379 18.1338 109.109 17.1152 108.567 16.2642C108.051 15.3874 107.355 14.7169 106.478 14.2528C105.627 13.7886 104.712 13.5565 103.732 13.5565C102.752 13.5565 101.824 13.7886 100.947 14.2528C100.096 14.7169 99.3995 15.3874 98.858 16.2642C98.3422 17.1152 98.0843 18.1338 98.0843 19.32V30.6923H94.5257ZM118.54 30.6923V19.2813C118.54 17.5278 118.927 15.9934 119.7 14.6783C120.5 13.3631 121.596 12.3445 122.988 11.6224C124.381 10.8746 125.967 10.5007 127.746 10.5007C129.551 10.5007 131.137 10.8746 132.504 11.6224C133.896 12.3445 134.979 13.3631 135.753 14.6783C136.552 15.9934 136.952 17.5278 136.952 19.2813V30.6923H133.393V19.32C133.393 18.1338 133.123 17.1152 132.581 16.2642C132.065 15.3874 131.369 14.7169 130.492 14.2528C129.641 13.7886 128.726 13.5565 127.746 13.5565C126.766 13.5565 125.838 13.7886 124.961 14.2528C124.11 14.7169 123.414 15.3874 122.872 16.2642C122.356 17.1152 122.098 18.1338 122.098 19.32V30.6923H118.54ZM152.572 30.6923C150.406 30.6923 148.485 30.2926 146.809 29.4932C145.133 28.668 143.818 27.5205 142.863 26.0506C141.935 24.5549 141.471 22.8142 141.471 20.8286C141.471 18.8687 141.871 17.1152 142.67 15.5679C143.469 13.9949 144.578 12.7571 145.997 11.8545C147.415 10.952 149.065 10.5007 150.948 10.5007C152.985 10.5007 154.674 10.9391 156.015 11.8158C157.382 12.6926 158.4 13.8788 159.071 15.3745C159.741 16.8444 160.077 18.4948 160.077 20.3257C160.077 20.6094 160.064 20.9059 160.038 21.2154C160.038 21.5248 160.012 21.7956 159.961 22.0277H145.262C145.391 23.2397 145.79 24.2712 146.461 25.1222C147.131 25.9474 147.982 26.5792 149.014 27.0176C150.071 27.4302 151.231 27.6365 152.495 27.6365H157.64V30.6923H152.572ZM145.223 19.5134H156.479C156.479 19.0235 156.428 18.5077 156.324 17.9662C156.221 17.3988 156.041 16.8573 155.783 16.3416C155.525 15.8 155.177 15.3229 154.739 14.9103C154.326 14.472 153.797 14.1238 153.153 13.8659C152.534 13.6081 151.799 13.4791 150.948 13.4791C150.045 13.4791 149.246 13.6596 148.55 14.0207C147.879 14.3559 147.299 14.8201 146.809 15.4132C146.319 15.9805 145.945 16.6252 145.687 17.3473C145.429 18.0693 145.275 18.7914 145.223 19.5134Z" fill="#66788A"/>
</mask>
<g mask="url(#mask0_201_2001)">
<rect x="-25.1428" y="1.7583" width="44.4835" height="32.8791" fill="white"/>
<rect x="47.3846" y="2.72528" width="21.2747" height="32.8791" fill="white"/>
</g>
<circle cx="4.61544" cy="3.07692" r="3.07692" fill="white"/>
<circle cx="22.7692" cy="5.53841" r="3.07692" fill="white"/>
<circle cx="16.9231" cy="28.6154" r="3.07692" fill="white"/>
<circle cx="65.5384" cy="4.92311" r="3.07692" fill="white"/>
<circle cx="65.5384" cy="28.9231" r="3.07692" fill="white"/>
</svg>
